<?xml version="1.0" standalone="no"?><!DOCTYPE svg PUBLIC "-//W3C//DTD SVG 1.1//EN" "http://www.w3.org/Graphics/SVG/1.1/DTD/svg11.dtd"><svg t="1665901434488" class="icon" viewBox="0 0 1024 1024" version="1.1" xmlns="http://www.w3.org/2000/svg" p-id="1416" xmlns:xlink="http://www.w3.org/1999/xlink" width="200" height="200"><path d="M341.333333 546.133333l-45.511111 170.666667c0 11.377778 0 22.755556 5.688889 28.444444 5.688889 5.688889 11.377778 5.688889 22.755556 5.688889h5.688889l164.977777-45.511111h5.688889l443.733334-449.422222c11.377778-11.377778 22.755556-34.133333 22.755555-51.2 0-22.755556-11.377778-45.511111-28.444444-62.577778l-39.822223-39.822222c-17.066667-17.066667-39.822222-28.444444-62.577777-28.444444-17.066667 0-39.822222 5.688889-51.2 22.755555L341.333333 546.133333z m557.511111-329.955555l-45.511111 45.511111-73.955555-73.955556 45.511111-45.511111c5.688889-5.688889 22.755556-5.688889 28.444444 0l39.822223 39.822222c5.688889 5.688889 5.688889 11.377778 5.688888 17.066667 5.688889 5.688889 5.688889 11.377778 0 17.066667zM420.977778 551.822222L739.555556 227.555556l73.955555 73.955555L494.933333 625.777778 420.977778 551.822222z m-62.577778 136.533334l22.755556-85.333334 62.577777 62.577778-85.333333 22.755556z m568.888889-295.822223c-17.066667 0-28.444444 11.377778-28.444445 28.444445V796.444444c0 56.888889-56.888889 85.333333-85.333333 85.333334H204.8c-39.822222 0-79.644444-39.822222-85.333333-108.088889V210.488889c0-91.022222 62.577778-85.333333 85.333333-85.333333h403.911111c17.066667 0 28.444444-11.377778 28.444445-28.444445s-11.377778-28.444444-28.444445-28.444444H199.111111c-51.2 0-142.222222 34.133333-142.222222 119.466666v597.333334c0 119.466667 73.955556 164.977778 142.222222 164.977777h620.088889c79.644444 0 142.222222-51.2 142.222222-142.222222V432.355556c0-28.444444-17.066667-39.822222-34.133333-39.822223z" fill="#999999" p-id="1417"></path></svg>