<?xml version="1.0" standalone="no"?><!DOCTYPE svg PUBLIC "-//W3C//DTD SVG 1.1//EN" "http://www.w3.org/Graphics/SVG/1.1/DTD/svg11.dtd"><svg t="1666187557798" class="icon" viewBox="0 0 1024 1024" version="1.1" xmlns="http://www.w3.org/2000/svg" p-id="9415" xmlns:xlink="http://www.w3.org/1999/xlink" width="200" height="200"><path d="M509.44 132.096c-206.848 0-374.784 167.936-374.784 374.784 0 206.848 167.936 374.784 374.784 374.784 206.848 0 374.784-167.936 374.784-374.784-0.512-206.848-167.936-374.784-374.784-374.784z m0 714.24c-187.392 0-339.456-152.064-339.456-339.456 0-187.392 152.064-339.456 339.456-339.456s339.456 152.064 339.456 339.456c0 187.392-152.064 339.456-339.456 339.456z" fill="#707070" p-id="9416"></path><path d="M509.44 202.752c-167.936 0-304.64 136.192-304.64 304.64 0 167.936 136.192 304.64 304.64 304.64 167.936 0 304.64-136.192 304.64-304.64-0.512-168.448-136.704-304.64-304.64-304.64z m193.536 368.64h-0.512v5.632l-0.512 3.072-0.512 5.632-1.024 5.12-1.536 4.608-0.512 2.048-1.024 2.56-1.024 1.536-1.024 2.048-1.024 1.024-1.536 1.536-1.024 1.024-1.024 1.024-1.536 0.512-1.536 0.512-1.024 0.512H685.056l-1.024-0.512-2.048-1.024-1.024-0.512-1.024-0.512-1.024-1.024-1.024-1.024-2.048-2.048-2.048-3.072-1.536-3.072-1.536-2.56-1.536-2.56-2.56-5.12-2.56-5.12h-1.024l-1.024 1.024-0.512 1.536-1.024 1.536-2.048 5.12-2.56 7.168-3.584 8.704-2.56 4.096-2.56 4.608-3.072 5.12-3.584 5.12-1.536 2.048-2.048 2.56-4.608 4.608 0.512 0.512 0.512 0.512 2.56 1.536 10.24 5.12 4.608 2.56 4.096 2.56 4.096 3.072 3.584 3.072 2.048 1.536 1.536 1.536 1.536 2.048 1.024 2.048 0.512 1.536 0.512 2.048 0.512 2.048 0.512 2.048-0.512 1.536v1.536l-0.512 1.536-0.512 1.536-0.512 1.024-0.512 1.024-2.048 2.56-1.536 2.048-1.536 1.536-1.024 1.024-2.56 2.048-3.072 2.048-3.072 1.536-3.584 1.536-4.096 1.536-2.048 0.512-2.048 0.512-4.608 1.024-4.608 1.024-4.608 1.024-5.12 1.024-5.632 0.512-5.632 0.512H593.92l-6.144-0.512-5.632-0.512-6.144-1.024-6.144-0.512-6.656-1.024-6.144-1.536-6.144-1.024-6.144-2.048-6.144-2.56-6.144-2.048-3.072-1.024-3.072-1.024-2.048-0.512-2.048-0.512h-5.12l-6.144-0.512-3.072-0.512-4.096-0.512-2.56 2.56-3.584 2.048-4.608 2.56-5.12 3.072-3.072 1.536-3.072 1.024-7.168 3.072-4.096 1.024-4.096 1.024-5.632 1.024-3.584 0.512-3.584 0.512-4.096 0.512h-33.28l-10.24-1.024-5.12-0.512-5.12-0.512-4.608-0.512-4.608-1.024-4.608-1.536-4.608-1.024-4.096-1.536-3.584-1.536-3.584-1.536-3.072-2.048-3.072-2.048-1.024-1.024-1.536-1.536-1.024-1.024-1.024-1.536-1.024-1.536-0.512-1.536-1.024-3.072-0.512-1.536-0.512-1.536v-1.536l0.512-1.536v-1.536l0.512-1.536v-5.632l1.024-2.048 0.512-2.048 1.024-2.56 1.024-1.024 0.512-1.024 2.048-2.56 1.536-1.024 1.536-1.024 1.536-1.024 2.048-0.512 1.536-1.024 2.048-1.024 2.56-0.512 2.56-0.512 2.56-0.512 2.56-0.512 3.072-0.512 3.584-0.512 1.024-0.512 0.512-0.512v-1.536l-0.512-1.024-2.048-1.024-4.608-4.096-3.072-2.56-3.584-3.072-3.584-3.584-3.584-4.608-4.096-5.12-1.536-2.56-2.048-3.072-2.048-3.072-1.536-3.584-2.048-3.584-1.536-4.096-1.536-4.096-1.536-4.096-1.024-4.096-1.024-5.12h-1.024v-0.512h-0.512l-0.512 0.512h-0.512l-0.512 1.024v1.024l-0.512 1.024-0.512 1.536-2.048 3.584-1.024 2.56-1.536 2.048-2.048 2.56-2.048 2.56-2.048 2.56-2.56 2.048-2.56 2.048-2.56 1.536-2.56 2.048-2.56 1.024-3.072 1.024-3.072 0.512h-1.024l-0.512-0.512-0.512-1.024-1.024-0.512-1.024-3.072-0.512-1.536-1.024-2.048-0.512-2.56-0.512-2.56-1.024-5.632-0.512-3.072v-10.24l0.512-7.68 0.512-4.096 0.512-4.096 0.512-4.608 1.024-4.096 1.536-4.608 1.536-4.608 2.048-4.608 1.536-4.608 2.56-4.608 2.048-5.12 2.56-4.608 3.072-5.12 3.072-4.608 3.072-5.12 2.56-3.584 3.584-4.096 3.584-4.096 1.536-2.048 2.048-2.048 3.072-2.56 3.072-2.56 5.12-4.608 4.096-3.072 1.536-1.024-0.512-2.56-0.512-3.072-0.512-1.536v-7.168l0.512-2.56 1.024-3.072 1.024-3.072 1.536-3.584 1.536-3.584 2.56-3.584v-2.56l0.512-2.56 0.512-3.072 1.024-3.584 1.024-4.096 1.024-2.048 1.024-1.536 1.024-2.048 1.024-1.536V408.064l0.512-4.608 0.512-5.12 1.536-6.144 2.048-6.656 1.536-3.584 1.536-4.096 1.536-3.584 1.536-4.096 2.048-4.096 2.048-4.096 2.048-4.096 3.072-4.096 1.536-2.56 1.536-2.048 3.072-4.608 3.072-4.608 3.584-4.608 4.096-4.608 4.096-4.608 4.608-4.608 5.12-5.12 3.584-3.072 4.096-3.072 4.096-3.072 4.608-2.56 4.096-2.56 4.608-2.048 5.12-2.56 5.12-1.536 5.12-2.048 5.632-2.048 5.632-1.536 5.632-1.024 6.144-1.024 5.632-1.024 5.632-1.024 6.144-0.512H524.8l6.144 1.024 6.144 0.512 6.144 0.512 5.632 1.536 6.144 1.536 5.632 1.536 6.144 1.536 5.632 2.048 5.632 2.56 6.144 2.56 5.632 2.56 5.12 3.072 5.12 3.584 4.608 3.072 2.048 2.048 2.048 1.024 4.096 3.584 3.584 3.584 3.584 3.584 3.584 4.096 2.56 4.096 3.072 4.096 2.56 4.096 2.56 3.584 2.56 4.608 2.048 4.096 3.584 8.192 1.536 4.096 1.536 4.096 1.536 4.096 1.024 4.096 1.024 3.584 1.024 4.096 2.048 7.168 1.024 6.144 1.024 6.144 0.512 4.608 1.024 7.68 0.512 1.024 1.024 1.536 2.048 4.096 1.536 2.56 1.536 2.56 1.536 3.072 1.536 3.584 1.024 3.584 1.024 4.096 1.024 4.096 0.512 2.048 0.512 2.56v2.048l-0.512 2.048v2.56l-0.512 2.56-1.024 5.12-1.024 2.56-1.024 2.56v0.512l0.512 1.024 1.024 2.048 5.632 8.192 4.096 6.144 2.048 4.096 2.56 4.608 2.56 5.12 2.56 5.12 2.56 6.144 3.072 6.656 1.536 4.096 1.536 4.096 1.536 4.096 1.536 4.096 1.024 4.096 1.024 3.584 1.536 7.168 1.024 7.68 0.512 6.656v2.048z" fill="#707070" p-id="9417"></path></svg>