<?xml version="1.0" standalone="no"?><!DOCTYPE svg PUBLIC "-//W3C//DTD SVG 1.1//EN" "http://www.w3.org/Graphics/SVG/1.1/DTD/svg11.dtd"><svg t="1666096140319" class="icon" viewBox="0 0 1024 1024" version="1.1" xmlns="http://www.w3.org/2000/svg" p-id="6817" xmlns:xlink="http://www.w3.org/1999/xlink" width="200" height="200"><path d="M934.2 665.5c-21.9-45.8-60.5-82.1-109-102.4 15.1-28.4 22.8-60.4 22.3-93.3 30.1-40.8 42.4-91.2 34.9-142.6-7.7-52.7-35.6-100.1-78.3-133.6-42.8-33.5-95.5-49.1-148.5-44-53.6 5.2-101.1 30.9-133.7 72.4-21.2 27-34.4 59.1-38.8 92.9-2.9 22.1 15.6 41.2 37.8 39.2 16.3-1.4 29.5-14 31.6-30.3 2.8-21.5 11.2-41.7 24.5-58.7 43-54.8 125.4-62.2 183.9-16.4 28.6 22.4 47.1 53.9 52.2 88.7 5 34.2-3.6 67.5-24.2 93.8-1.1 1.4-2.3 2.9-3.6 4.3l-9.7 11.2 1.3 14.7c2.7 30.9-5.8 61-24 84.9-11.5-0.6-23.1-0.3-34.5 0.9-19.7 2.2-38.8 7.2-56.6 14.7-20.2 8.6-27.2 33.8-14.4 51.7l0.7 0.9c9.4 13.1 26.6 17.8 41.6 11.6 32.4-13.6 71.1-13.7 106.4 0.5 33.5 13.5 60.1 38 74.9 68.9 14.3 29.9 15.7 62.3 4 91.2-24.5 60.8-99.9 87.9-167.9 60.5-25.6-10.4-47.4-27.2-63-48.8-10.4-14.5-30.1-18.8-45.6-10-25.7 14.5-56.1 16.6-83.4 5.6-13.7-5.5-25.6-13.9-35.2-24.5 11.7-5.1 23.3-9.1 34.6-11.9 100.7-24.3 141.8-6.4 182.8 30.5 11.9 10.7 30 10.3 41.4-1 12.1-12.1 11.6-32-1.1-43.5-21.4-19.2-45.8-36.7-76.7-47.1-42.8-14.3-93.7-13.4-160.4 2.7-110 26.6-230.1 147-277.6 198.7-11.5 12.6-10.3 32.2 2.8 43.2l0.1 0.1c12.3 10.3 30.5 9.2 41.4-2.6 29-31.5 87.5-91.2 151-134.2 18.1 24.4 42.3 43 70.9 54.6 37.9 15.3 79.2 16 117 2.8 20.8 21.7 46.3 39 75 50.6 26.2 10.6 53.6 15.9 80.8 15.9 24.4 0 48.7-4.3 71.6-12.9 49.5-18.7 87.4-55 106.5-102.4 19.1-47.3 17-99.7-5.8-147.5z" p-id="6818" fill="#707070"></path><path d="M201 700.2c41.6-36.6 111.3-97.8 136.5-217 18.5-87.3 3.7-150.9-10.3-186.8-7.1-18.1-29.3-24.8-45.2-13.6-9.4 9.4-13.4 27.4-8.9 40 2 5.5 4 11.8 5.8 19 6.8 26.7 12.3 70.8-0.1 129-4.5 21-10.6 39.9-17.8 56.9-37-17.2-59.1-54-52.6-92.9 1.2-7.1 1.6-13.1 2-17.9 0.6-8.6 0.8-9 1.9-10.4 10.3-15 7.4-35.4-6.7-46.9-28.2-23.1-40.4-68.8-31.9-119.3 11.5-68 75-115.3 141.5-105.6 31.3 4.6 58.8 21.2 77.4 46.7 19.3 26.5 26.8 59.3 21.2 92.5-0.4 2.6-0.9 5.1-1.3 7.6-4.3 26.1-8.1 48.7-20.6 62-12.9 13.7-12.7 35.2 0.5 48.6 2.3 2.4 4.4 4.8 6.1 7.4 6.3 9.3 17.7 13.7 28.6 11l16.5-4c17.4-4.2 26.1-24 17.1-39.5-0.1-0.1-0.1-0.2-0.2-0.3 12.7-23.6 17-49.9 21-73.8 0.4-2.5 0.8-4.9 1.2-7.4 8.8-51.9-3.2-103.5-33.6-145.3-29.8-40.9-73.7-67.4-123.8-74.8-50.5-7.4-101.3 5.6-143 36.5-41.5 30.8-69.1 75.8-77.7 126.7-5.9 34.7-4.6 69.3 3.6 100 6.9 25.6 18.5 48.3 34.3 66.7-1.2 6.2-1.6 11.8-2 16.6-0.3 3.8-0.5 7.5-1.2 11.2-7.1 41.7 3.5 83.6 29.7 118 15.1 19.9 34.6 35.9 56.9 47.3-21.8 29-45.6 50-64.6 66.7-6.5 5.7-12.6 11.1-17.9 16.2-18.3 17.4-44.4 40.1-63 56-12.5 10.6-14.1 29.3-3.6 42l0.1 0.1c10.7 12.8 29.8 14.5 42.5 3.6 19.1-16.3 46-39.7 65.4-58.2 4.5-4.3 10-9.1 16.2-14.6zM674.6 350c-11.5-10.2-29.9-9.8-41 0.9L140.4 830.3c-11.9 11.5-12.2 30.5-0.6 42.4 11.5 11.9 30.5 12.2 42.4 0.6l493.4-479.5c12.7-12.3 12.3-32-1-43.8z" p-id="6819" fill="#707070"></path></svg>