<?xml version="1.0" standalone="no"?><!DOCTYPE svg PUBLIC "-//W3C//DTD SVG 1.1//EN" "http://www.w3.org/Graphics/SVG/1.1/DTD/svg11.dtd"><svg t="1666096590719" class="icon" viewBox="0 0 1024 1024" version="1.1" xmlns="http://www.w3.org/2000/svg" p-id="17187" xmlns:xlink="http://www.w3.org/1999/xlink" width="200" height="200"><path d="M288 464h-32v-32h32v32z m160-104v560c0 22-18 40-40 40H232c-22 0-40-18-40-40V360c0-19.8 14.6-36.3 33.5-39.5V216c0-2.3 0.2-4.7 0.6-7.2 0.1-0.8 0.3-1.7 0.5-2.5 0.7-3.4 1.8-7 3.1-10.7 4.8-13.1 13.4-27.8 24.3-42.6 2.3-3.2 4.8-6.3 7.3-9.5 6.8-8.4 14.2-16.7 22.1-24.6 2-2 4-3.9 6-5.8 3-2.9 6.1-5.7 9.2-8.4 2.1-1.8 4.1-3.6 6.2-5.3 4.2-3.5 8.4-6.7 12.6-9.8 3.2-2.3 6.4-4.5 9.5-6.6 18-11.6 35.7-18.9 50.5-18.9 22 0 40 18 40 40v217.1c17.5 4.2 30.6 20.1 30.6 38.8z m-190.5-40h128V104c0-4.3-3.7-8-8-8-13.6 0-43.4 16.5-74 48.1-13.9 14.3-26.2 30-34.6 44.1-9 15-11.3 24.5-11.3 27.8v104zM416 920V464h-95v-32h95v-72c0-4.3-3.7-8-8-8H232c-4.3 0-8 3.7-8 8v560c0 4.3 3.7 8 8 8h176c4.3 0 8-3.7 8-8z m376-216h-72V448h-32v256h-72c-22 0-40 18-40 40v176c0 22 18 40 40 40h176c22 0 40-18 40-40V744c0-22-18-40-40-40z m8 216c0 4.3-3.7 8-8 8H616c-4.3 0-8-3.7-8-8V744c0-4.3 3.7-8 8-8h176c4.3 0 8 3.7 8 8v176z m-47.9-688.6h-96v-32h96v32z m0-66.9h-96v-32h96v32z m0 267.5h-96v-32h96v32z m-16-334.3h-64v-32h64v32z m16 200.6h-96v-32h96v32z m0 66.8h-96v-32h96v32z" p-id="17188" fill="#707070"></path></svg>