<?xml version="1.0" standalone="no"?><!DOCTYPE svg PUBLIC "-//W3C//DTD SVG 1.1//EN" "http://www.w3.org/Graphics/SVG/1.1/DTD/svg11.dtd"><svg t="1666187151132" class="icon" viewBox="0 0 1024 1024" version="1.1" xmlns="http://www.w3.org/2000/svg" p-id="2975" xmlns:xlink="http://www.w3.org/1999/xlink" width="200" height="200"><path d="M1024 396.536a31.08 31.08 0 0 0-31.096-31.088h-36.424c-5.504-72.272-59.176-130.96-129.304-143.392-13.672-73.384-77.904-129.184-155.176-129.184-0.6 0-1.096 0.304-1.672 0.336-31.568-43.384-90.832-72.744-158.752-72.744-61.4 0-118.304 23.832-152.24 63.824-2.352 2.776-4.112 5.784-6.192 8.664-76.968 0.344-140.872 56-154.456 129.168-69.856 12.648-123.248 71.256-128.744 143.336H31.088A31.08 31.08 0 0 0 0 396.536C0 493.144 24.12 765.6 281.528 868.096c-0.392 1.976-1.176 3.8-1.176 5.888v98.464a31.088 31.088 0 0 0 31.088 31.096h401.12a31.08 31.08 0 0 0 31.096-31.096v-98.464c0-3.664-0.92-7.104-2.104-10.384C935.048 779.352 1024 587.296 1024 396.536zM224.832 281.64c0.72 0.048 1.304 0.408 2.024 0.408a31.088 31.088 0 0 0 31.088-31.088c0-44.328 30.36-81.352 71.288-92.296-0.104 1.96-0.544 3.856-0.544 5.832a31.088 31.088 0 0 0 62.184 0c0-17.488 8.68-31.456 15.92-40.032 21.904-25.792 62.056-41.824 104.792-41.824 65.456 0 120.744 37.48 120.744 81.848a31.088 31.088 0 1 0 62.184 0c0-2.232-0.304-4.416-0.432-6.632 42.232 10.032 73.832 47.832 73.832 93.104a31.08 31.08 0 0 0 31.096 31.088c0.784 0 1.424-0.392 2.216-0.44 48.056 0.808 87.216 37.144 93.088 83.84H132.112c5.864-46.576 44.832-82.808 92.72-83.808z m456.648 659.72H342.528v-53.528c49.216 12.696 105.216 20.048 169.472 20.048 62.664 0 118.864-8.416 169.48-23.08v56.56zM512 845.696c-377.352 0-441.832-271.336-449.064-418.064h898.008c-11.36 199.528-133.44 418.064-448.944 418.064z" fill="#707070" p-id="2976"></path></svg>