<?xml version="1.0" standalone="no"?><!DOCTYPE svg PUBLIC "-//W3C//DTD SVG 1.1//EN" "http://www.w3.org/Graphics/SVG/1.1/DTD/svg11.dtd"><svg t="1666096115465" class="icon" viewBox="0 0 1024 1024" version="1.1" xmlns="http://www.w3.org/2000/svg" p-id="4737" xmlns:xlink="http://www.w3.org/1999/xlink" width="200" height="200"><path d="M383.733 188.373c0.271 0.352 0.352 1.135 0.352 2.461l0 154.891c0 1.326 0.225 2.109-0.063 2.461L130.413 348.186c-0.288-0.352-2.029-1.135-2.029-2.461l0-154.89c0-1.326 1.741-2.109 2.029-2.461l253.67 0M384.74 156.411 129.695 156.411c-17.659 0-33.272 15.406-33.272 34.424l0 154.891c0 19.018 15.613 34.424 33.272 34.424L384.74 380.15c17.659 0 31.307-15.406 31.307-34.424L416.047 190.835c0-19.018-13.983-34.424-31.627-34.424L384.74 156.411zM800.252 667.812c17.627 0 31.963 14.336 31.963 31.963 0 17.628-14.336 31.963-31.963 31.963-17.628 0-31.963-14.335-31.963-31.963C768.29 682.147 782.624 667.812 800.252 667.812M800.252 635.849c-35.304 0-63.926 28.623-63.926 63.925 0 35.303 28.623 63.925 63.926 63.925s63.925-28.623 63.925-63.925S835.555 635.849 800.252 635.849L800.252 635.849zM272.87 667.812c17.628 0 31.963 14.336 31.963 31.963 0 17.628-14.335 31.963-31.963 31.963-17.627 0-31.963-14.335-31.963-31.963C240.907 682.147 255.243 667.812 272.87 667.812M272.87 635.849c-35.303 0-63.925 28.623-63.925 63.925 0 35.303 28.623 63.925 63.925 63.925s63.925-28.623 63.925-63.925S308.172 635.849 272.87 635.849L272.87 635.849zM815.578 316.224 815.578 268.28c15.98-62.502-15.981-95.888-79.906-95.888-24.388 0-108.816 14.463-143.832 31.963-31.963 15.98-31.963 31.963-15.98 47.944 0.207 0 0.415 0.032 0.623 0.032 9.013-9.03 23.429-17.963 45.546-24.115-0.768-0.271 71.356-22.741 113.644-23.86 24.211-0.64 42.254 5.753 49.478 15.773 7.224 10.021 4.043 26.226 0.097 38.052-1.07 3.244-1.631 6.664-1.631 10.1l-0.016 47.944c0 4.075 0.782 8.103 2.285 11.875 8.23 20.567 21.351 50.229 36.532 84.589 39.299 88.808 105.029 237.465 105.029 281.765 0 74.904-60.937 135.841-135.841 135.841-53.073 0-101.593-31.323-123.615-79.811-5.194-11.411-16.572-18.746-29.102-18.746L416.942 731.738c-12.529 0-23.907 7.335-29.102 18.746-22.022 48.487-70.542 79.811-123.615 79.811-74.904 0-135.841-60.937-135.841-135.841 0-7.495 0.734-15.294 2.253-23.827 1.406-7.959-0.256-16.174-4.65-22.949-19.338-29.853-29.565-64.323-29.565-99.723 0-46.457 11.762-82.896 20.695-103.878L383.54 444.077c-28.383 26.129-39.905 73.354-28.191 123.007 14.606 61.88 58.348 101.849 111.422 101.849 6.057 0 12.257-0.526 18.458-1.55 131.622-21.942 219.199-116.04 234.27-251.736 6.633-59.658-7.814-112.731-40.672-149.44-2.19-2.445-4.618-4.555-6.937-6.808-12.13-10.963-50.085-3.644-36.006 11.283 37.14 25.602 59.083 76.31 51.843 141.435C671.747 555.942 575.86 619.868 479.971 635.849c-4.538 0.751-8.949 1.118-13.2 1.118-85.516 0-111.63-146.468-50.725-176.912l0-47.943L97.077 412.112c-16.973 30.828-32.618 79.905-32.618 135.841 0 43.197 12.833 83.342 34.695 117.095-1.694 9.557-2.733 19.354-2.733 29.405 0 92.676 75.128 167.803 167.803 167.803 67.952 0 126.332-40.464 152.717-98.557l221.948 0c26.385 58.076 84.765 98.557 152.717 98.557 92.676 0 167.803-75.128 167.803-167.803C959.409 626.325 847.541 396.13 815.578 316.224z" p-id="4738"></path><path d="M378.552 191.401c-1.313-3.1-0.468-0.925-0.468 0.265 0 1.133 0 2.266 0 3.398 0 4.261 0 8.521 0 12.782 0 14.047 0 28.094 0 42.141 0 28.767 0 57.535 0 86.302 0 2.36 0 4.721 0 7.082 0 0.841 0.136 3.271 0.151 3.219 1.929-1.468 3.857-2.937 5.786-4.405-45.427 0-90.854 0-136.281 0-39.109 0-78.217 0-117.326 0 1.414 0.586 2.829 1.171 4.243 1.757-3.953-3.123-0.272 3.75-0.272 0.95 0-1.133 0-2.266 0-3.398 0-4.261 0-8.521 0-12.782 0-14.047 0-28.094 0-42.141 0-28.767 0-57.535 0-86.302 0-2.361 0-4.721 0-7.082 0-0.606 0-1.212 0-1.818 0-1.857-3.642 4.341 0.272 1.246-1.414 0.586-2.829 1.171-4.243 1.757 45.438 0 90.876 0 136.315 0 39.118 0 78.237 0 117.355 0 7.738 0 7.738-12 0-12-45.438 0-90.876 0-136.315 0-29.278 0-58.556 0-87.834 0-8.252 0-16.504 0-24.756 0-6.154 0-12.794 1.044-12.794 9.137 0 49.875 0 99.749 0 149.623 0 6.401 1.527 13.052 9.333 13.052 6.297 0 12.593 0 18.89 0 27.427 0 54.854 0 82.282 0 49.994 0 99.988 0 149.982 0 0.383 0 0.766 0 1.148 0 2.695 0 5.043-1.835 5.786-4.405 0.639-2.209 0.278-5.237 0.278-7.604 0-4.06 0-8.12 0-12.18 0-13.829 0-27.658 0-41.487 0-29.066 0-58.132 0-87.199 0-5.023 0.822-11.263-1.171-15.967-1.277-3.014-5.662-3.645-8.209-2.152C377.617 185.001 377.276 188.39 378.552 191.401L378.552 191.401z" p-id="4739"></path><path d="M384.74 150.411c-45.336 0-90.671 0-136.007 0-29.432 0-58.864 0-88.296 0-16.854 0-37.874-3.067-52.466 6.985-12.628 8.7-17.548 22.59-17.548 37.321 0 10.45 0 20.899 0 31.348 0 31.124 0 62.247 0 93.371 0 8.429 0 16.858 0 25.287 0 18.914 12.409 35.929 31.015 40.478 5.642 1.379 11.808 0.949 17.583 0.949 9.741 0 19.482 0 29.223 0 60.527 0 121.054 0 181.582 0 9.173 0 18.347 0 27.521 0 7.546 0 14.755 0.073 21.89-3.136 15.543-6.989 22.812-23.046 22.812-39.379 0-9.384 0-18.768 0-28.152 0-31.197 0-62.394 0-93.591 0-9.568 0-19.136 0-28.703 0-16.146-6.923-31.641-21.923-39.119-4.899-2.442-10.257-3.537-15.704-3.659 0 4 0 8 0 12 0.107 0 0.213 0 0.32 0C392.478 162.411 392.478 150.411 384.74 150.411c-0.107 0-0.213 0-0.32 0-7.749 0-7.725 11.827 0 12 16.844 0.377 25.627 15.448 25.627 30.778 0 9.567 0 19.135 0 28.703 0 31.197 0 62.394 0 93.591 0 9.384 0 18.768 0 28.152 0 14.896-8.641 30.515-25.312 30.515-14.616 0-29.232 0-43.849 0-60.375 0-120.749 0-181.124 0-8.341 0-16.682 0-25.022 0-9.867 0-18.353-2.016-25.43-9.802-7.292-8.021-6.887-18.106-6.887-28.057 0-12.455 0-24.91 0-37.365 0-30.359 0-60.719 0-91.078 0-6.612-0.295-13.303 0.121-19.908 0.949-15.048 14.69-25.528 28.972-25.528 50.994 0 101.988 0 152.982 0 33.414 0 66.828 0 100.242 0C392.478 162.411 392.478 150.411 384.74 150.411z" p-id="4740"></path><path d="M800.252 673.812c14.379 0.308 25.655 11.584 25.963 25.963s-12.046 25.666-25.963 25.963c-14.379 0.308-25.666-12.046-25.963-25.963C773.982 685.396 786.336 674.108 800.252 673.812c7.727-0.165 7.743-12.165 0-12-20.969 0.448-37.514 16.994-37.963 37.963-0.449 20.967 17.669 37.529 37.963 37.963 20.967 0.448 37.529-17.669 37.963-37.963 0.448-20.967-17.669-37.529-37.963-37.963C792.509 661.646 792.526 673.646 800.252 673.812L800.252 673.812z" p-id="4741"></path><path d="M800.252 629.849c-23.173 0.25-44.076 11.448-57.537 30.211-13.374 18.642-15.844 44.089-7.531 65.27 8.265 21.059 26.56 36.855 48.44 42.377 22.555 5.691 46.456-0.978 63.7-16.235 21.435-18.966 28.364-50.832 17.996-77.252C854.85 647.539 828.755 630.156 800.252 629.849c-7.741-0.084-7.733 11.916 0 12 22.644 0.244 42.526 13.106 52.494 33.353 9.907 20.125 5.928 45.287-8.414 62.178-14.703 17.315-38.388 24.048-60.126 18.068-21.562-5.932-37.134-24.575-41.144-46.227-6.489-35.034 22.536-66.998 57.189-67.372C807.986 641.765 807.993 629.765 800.252 629.849z" p-id="4742"></path><path d="M272.87 673.812c14.379 0.308 25.656 11.584 25.963 25.963s-12.046 25.666-25.963 25.963c-14.379 0.308-25.666-12.046-25.963-25.963C246.6 685.396 258.954 674.108 272.87 673.812c7.727-0.165 7.743-12.165 0-12-20.968 0.448-37.515 16.994-37.963 37.963-0.448 20.967 17.668 37.529 37.963 37.963 20.967 0.448 37.529-17.668 37.963-37.963 0.448-20.967-17.668-37.529-37.963-37.963C265.128 661.646 265.143 673.646 272.87 673.812L272.87 673.812z" p-id="4743"></path><path d="M272.87 629.849c-23.172 0.25-44.076 11.449-57.536 30.211-13.374 18.642-15.844 44.089-7.532 65.27 8.265 21.059 26.56 36.855 48.44 42.377 22.555 5.691 46.455-0.979 63.699-16.235 21.436-18.966 28.365-50.832 17.997-77.252C327.468 647.539 301.373 630.156 272.87 629.849c-7.742-0.084-7.733 11.916 0 12 22.643 0.244 42.526 13.106 52.494 33.353 9.908 20.125 5.929 45.287-8.414 62.178-14.703 17.315-38.387 24.048-60.125 18.068-21.562-5.932-37.133-24.575-41.144-46.227-6.488-35.034 22.536-66.998 57.189-67.372C280.604 641.765 280.612 629.765 272.87 629.849z" p-id="4744"></path><path d="M821.578 316.224c0-12.417 0-24.833 0-37.25 0-5.382 0.036-9.861 1.08-14.577 2.26-10.203 3.417-20.765 2.818-31.211-0.99-17.315-7.698-33.866-20.673-45.627-14.123-12.801-33.046-18.1-51.568-20.242-17.12-1.979-33.95-0.063-50.907 2.375-21.45 3.083-42.775 7.313-63.791 12.596-27.179 6.832-103.731 28.089-71.634 68.928 2.717 3.457 6.106 8.296 11.174 6.902 3.947-1.085 7.884-6.38 11.274-8.779 10.307-7.292 22.202-11.904 34.271-15.336 3.131-0.89 5.082-4.213 4.191-7.381-0.002-0.004-0.003-0.008-0.004-0.012-0.919 2.259-1.838 4.518-2.758 6.776 0.15-0.112-1.918 0.738-0.55 0.247 0.644-0.231 1.295-0.441 1.945-0.654 2.497-0.815 5.014-1.574 7.531-2.326 8.067-2.411 16.192-4.631 24.342-6.744 21.129-5.478 42.635-10.379 64.368-12.67 11.902-1.255 24.015-1.495 35.777 0.972 8.461 1.774 19.849 5.542 23.454 14.341 5.028 12.273-2.284 24.692-3.906 36.71-0.698 5.172-0.401 10.506-0.403 15.713-0.004 12.417-0.008 24.833-0.012 37.25-0.004 11.922 6.571 23.529 11.129 34.275 5.317 12.542 10.789 25.019 16.273 37.489 19.608 44.593 39.522 89.053 58.427 133.953 17.418 41.368 34.661 83.092 48.005 125.987 4.205 13.515 8.629 28.325 9.804 41.835 1.747 20.087-3.506 41.539-11.976 59.641-18.817 40.216-58.204 68.824-102.326 74.029-48.062 5.67-96.116-16.77-123.114-56.808-6.693-9.927-10.293-22.234-18.997-30.636-6.876-6.638-16.587-10.254-26.084-10.254-5.339 0-10.677 0-16.016 0-27.776 0-55.554 0-83.331 0-30.542 0-61.083 0-91.625 0-8.794 0-17.589 0-26.383 0-12.277 0-23.549 2.97-32.346 12.236-4.086 4.305-6.321 9.577-8.935 14.798-2.83 5.651-6.142 11.051-9.729 16.249-6.768 9.81-15.148 18.479-24.299 26.079-18.322 15.216-41.059 24.611-64.518 28.072-45.154 6.659-90.794-13.104-119.169-48.196-13.918-17.212-22.726-38.245-26.417-59.978-2.085-12.277-2.118-25.068-0.419-37.389 0.978-7.095 1.97-13.347 0.719-20.497-1.301-7.435-5.938-13.555-9.676-19.896-29.398-49.871-29.251-109.978-13.412-164.326 2.548-8.744 5.562-17.397 9.113-25.786-1.727 0.991-3.454 1.981-5.181 2.972 44.404 0 88.808 0 133.212 0s88.808 0 133.212 0c-1.414-3.414-2.829-6.829-4.243-10.243-38.461 35.987-40.983 96.207-25.605 143.493 13.711 42.159 45.473 79.335 90.064 89.148 23.942 5.27 48.183 0.663 71.531-5.346 21.39-5.505 42.182-13.428 61.842-23.484 37.599-19.232 70.008-47.423 94.733-81.597 25.809-35.67 42.038-77.746 49.941-120.893 9.335-50.956 7.107-104.94-18.569-151.047-5.862-10.528-13.069-20.518-21.279-29.342-7.009-7.534-14.012-11.482-24.263-12.483-12.237-1.195-39.275 5.72-28.677 23.313 2.407 3.995 6.763 6.24 10.28 9.138 4.077 3.359 7.841 7.085 11.387 10.995 7.082 7.807 12.76 16.783 17.47 26.186 10.903 21.77 14.94 46.521 14.948 70.678 0.008 26.474-4.972 53.281-12.606 78.568-6.586 21.817-16.141 42.621-28.537 61.746-21.863 33.73-53.195 60.11-89.126 77.806-17.015 8.38-35.059 14.564-53.465 19.068-18.431 4.51-36.986 7.761-55.276 1.112-29.318-10.658-45.951-42.228-52.348-70.941-6.772-30.4-4.201-74.627 27.332-90.715 1.852-0.944 2.972-3.161 2.972-5.181 0-15.981 0-31.962 0-47.943 0-3.271-2.729-6-6-6-40.129 0-80.258 0-120.387 0-58.472 0-116.943 0-175.415 0-7.723 0-15.445 0-23.167 0-2.066 0-4.176 1.132-5.181 2.972C71.288 446.802 61.1 490.162 58.836 532.876c-2.532 47.778 9.225 94.861 35.138 135.199-0.202-1.541-0.403-3.082-0.605-4.623-8.234 47.685 2.747 96.658 31.972 135.441 26.84 35.618 66.96 59.99 111.015 67.103 37.685 6.083 76.509-0.536 110.162-18.482 33.146-17.676 59.958-46.724 75.604-80.787-1.727 0.99-3.454 1.981-5.181 2.972 48.005 0 96.01 0 144.015 0 25.978 0 51.956 0 77.934 0-1.727-0.99-3.454-1.981-5.181-2.972 19.84 43.185 56.899 76.528 101.696 92.202 44.465 15.559 94.488 11.223 136.228-10.162 39.462-20.219 69.662-55.985 84.318-97.655 6.759-19.216 10.493-40.727 9.314-61.125-0.727-12.563-3.639-25.031-6.838-37.158-9.313-35.308-22.685-69.602-36.226-103.46-15.832-39.584-32.792-78.713-49.947-117.739-17.105-38.912-35.078-77.535-50.89-117-2.841-7.09-14.452-3.999-11.572 3.19 11.863 29.608 25.077 58.685 37.974 87.851 16.921 38.267 33.809 76.552 49.901 115.177 15.142 36.344 29.854 72.992 41.904 110.496 4.539 14.128 8.699 28.439 11.554 43.014 2.742 14.002 2.819 28.499 0.66 43.421-6.329 43.741-31.021 83.601-67.09 109.059-37.78 26.666-86.017 35.606-130.938 24.959-48.534-11.504-88.969-46.027-109.688-91.125-0.857-1.866-3.229-2.972-5.181-2.972-48.005 0-96.01 0-144.014 0-25.978 0-51.956 0-77.934 0-1.952 0-4.324 1.105-5.181 2.972-19.788 43.084-57.136 75.94-102.722 89.283-44.616 13.058-93.406 5.447-132.455-19.459-37.256-23.763-62.966-62.775-71.396-105.986-2.29-11.735-3.037-23.744-2.659-35.683 0.235-7.446 1.146-14.849 2.412-22.184 0.619-3.583-1.462-5.933-3.254-8.816-2.04-3.283-3.955-6.643-5.817-10.029-13.616-24.757-21.916-52.427-24.548-80.535-2.665-28.443 0.31-57.621 6.523-85.422 5.169-23.127 13.035-45.873 24.414-66.699-1.727 0.991-3.454 1.981-5.181 2.972 40.129 0 80.258 0 120.387 0 58.472 0 116.943 0 175.415 0 7.723 0 15.445 0 23.167 0-2-2-4-4-6-6 0 15.981 0 31.962 0 47.943 0.991-1.727 1.981-3.454 2.972-5.181-27.17 13.861-36.374 46.481-36.232 74.891 0.16 32.125 11.614 66.022 34.298 89.242 10.97 11.229 25.12 19.364 40.549 22.465 19.857 3.99 40.543-1.141 59.717-6.402 37.692-10.344 73.08-28.759 102.285-54.824 32.818-29.289 55.561-68.063 68.432-109.895 14.832-48.205 20.112-103.824-0.215-151.209-8.392-19.562-21.164-37.088-38.099-50.098-1.394-1.071-3.364-2.062-4.374-3.505-0.64-0.913-0.503-1.449-0.601-0.999-0.112 0.522 0.239-0.465 0.712-0.814 1.343-0.992 2.849-1.605 4.418-2.121 6.579-2.158 15.218-2.402 21.557 0.671 4.344 2.106 7.906 6.754 11.013 10.328 4.074 4.687 7.727 9.7 11.139 14.884 6.714 10.202 12.081 21.253 16.256 32.718 9.106 25.012 12.04 51.772 10.965 78.259-3.574 88.074-46.882 173.94-121.678 222.109-18.071 11.638-37.583 20.908-57.865 27.979-22.372 7.799-47.27 14.785-71.104 14.347-45.02-0.828-80.03-34.326-95.919-74.416-17.7-44.659-17.913-105.147 19.513-140.166 3.875-3.625 0.862-10.243-4.243-10.243-44.404 0-88.808 0-133.212 0s-88.808 0-133.212 0c-1.902 0-4.388 1.098-5.181 2.972C92.127 487.845 83.95 542.494 95.712 592.35c3.287 13.931 8.431 27.403 14.747 40.229 3.076 6.246 6.59 12.268 10.347 18.126 4.45 6.94 4.717 14.035 3.442 21.939-3.877 24.052-1.376 48.779 7.176 71.589 15.759 42.029 51.421 74.467 94.485 86.805 46.444 13.307 97.042 0.636 132.983-31.166 8.991-7.955 16.775-17.248 23.478-27.188 3.268-4.846 6.139-9.948 8.754-15.171 2.813-5.618 5.183-10.865 10.393-14.724 7.179-5.315 15.127-5.052 23.435-5.052 24.916 0 49.832 0 74.748 0 31.768 0 63.536 0 95.304 0 10.94 0 21.881 0 32.821 0 5.881 0 12.156-0.52 17.896 0.918 12.887 3.225 16.649 14.984 22.409 25.343 5.854 10.531 13.286 20.238 21.601 28.938 16.501 17.27 37.587 29.889 60.301 37.073 44.789 14.169 94.077 3.706 130.581-25.235 33.343-26.437 55.274-70.849 52.715-113.776-0.852-14.293-4.977-28.483-9.06-42.123-5.881-19.643-12.921-38.939-20.209-58.097-17.112-44.986-36.133-89.248-55.409-133.34-9.545-21.832-19.219-43.605-28.837-65.404-5.777-13.092-11.537-26.192-17.195-39.336-4.513-10.484-10.636-21.615-12.807-32.871-0.919-4.765-0.21-10.355-0.208-15.153 0.003-7.987 0.005-15.975 0.008-23.962 0.001-4.713-0.077-9.434 0.051-14.146 0.164-6.081 3.196-12.228 4.425-18.179 1.32-6.394 1.899-13.124 0.779-19.59-4.219-24.372-33.182-29.96-53.853-30.466-22.061-0.539-44.552 4.334-65.951 9.164-12.957 2.924-25.821 6.271-38.59 9.927-3.968 1.136-7.925 2.311-11.86 3.553-1.642 0.519-4.216 1.002-5.616 2.051-2.177 1.63-3.548 3.962-2.757 6.776 0.001 0.004 0.002 0.008 0.003 0.012 1.397-2.46 2.794-4.92 4.191-7.381-17.616 5.009-34.985 12.647-48.193 25.658 1.414-0.586 2.828-1.171 4.242-1.757-0.208-0.011-0.415-0.021-0.623-0.032 1.414 0.586 2.828 1.171 4.242 1.757-5.275-5.375-10.531-12.043-7.902-19.91 3.242-9.703 16.808-15.875 25.171-19.817 18.012-8.489 38.113-13.188 57.433-17.605 20.087-4.592 40.452-8.359 60.916-10.809 17.272-2.067 34.606-2.188 51.621 1.947 13.97 3.395 27.703 10.273 36.287 22.169 9.062 12.559 10.864 28.203 9.64 43.26-0.382 4.688-1.208 9.318-2.18 13.915-0.562 2.657-1.509 5.284-1.509 8.018 0 5.057 0 10.113 0 15.169 0 10.61 0 21.221 0 31.831C809.578 323.962 821.578 323.962 821.578 316.224z" p-id="4745"></path></svg>