<?xml version="1.0" standalone="no"?><!DOCTYPE svg PUBLIC "-//W3C//DTD SVG 1.1//EN" "http://www.w3.org/Graphics/SVG/1.1/DTD/svg11.dtd"><svg t="1666096579939" class="icon" viewBox="0 0 1024 1024" version="1.1" xmlns="http://www.w3.org/2000/svg" p-id="15879" xmlns:xlink="http://www.w3.org/1999/xlink" width="200" height="200"><path d="M874.4 892H149.6c-8.8 0-16-7.2-16-16V20c0-8.8 7.2-16 16-16h725.6c8.8 0 16 7.2 16 16v856c-0.8 8.8-8 16-16.8 16z m-708.8-32h693.6V36H165.6v824z" p-id="15880" fill="#707070"></path><path d="M874.4 892H149.6c-8.8 0-16-7.2-16-16s7.2-16 16-16h725.6c8.8 0 16 7.2 16 16s-8 16-16.8 16zM565.6 178.4H458.4c-4.8 0-8-3.2-8-8s3.2-8 8-8h108c4.8 0 8 3.2 8 8-0.8 4.8-4 8-8.8 8zM565.6 459.2H458.4c-4.8 0-8-3.2-8-8s3.2-8 8-8h108c4.8 0 8 3.2 8 8-0.8 4.8-4 8-8.8 8zM565.6 752H458.4c-4.8 0-8-3.2-8-8s3.2-8 8-8h108c4.8 0 8 3.2 8 8-0.8 4.8-4 8-8.8 8z" p-id="15881" fill="#707070"></path><path d="M283.2 1020c-8.8 0-16-7.2-16-16v-128c0-8.8 7.2-16 16-16s16 7.2 16 16v128c0 8.8-7.2 16-16 16zM740.8 1020c-8.8 0-16-7.2-16-16v-128c0-8.8 7.2-16 16-16s16 7.2 16 16v128c0 8.8-7.2 16-16 16zM874.4 313.6H149.6c-4.8 0-8-3.2-8-8s3.2-8 8-8h725.6c4.8 0 8 3.2 8 8-0.8 4-4 8-8.8 8zM874.4 598.4H149.6c-4.8 0-8-3.2-8-8s3.2-8 8-8h725.6c4.8 0 8 3.2 8 8-0.8 4.8-4 8-8.8 8z" p-id="15882" fill="#707070"></path></svg>