<?xml version="1.0" standalone="no"?><!DOCTYPE svg PUBLIC "-//W3C//DTD SVG 1.1//EN" "http://www.w3.org/Graphics/SVG/1.1/DTD/svg11.dtd"><svg t="1666187169168" class="icon" viewBox="0 0 1024 1024" version="1.1" xmlns="http://www.w3.org/2000/svg" p-id="4655" xmlns:xlink="http://www.w3.org/1999/xlink" width="200" height="200"><path d="M756.52 372.59V153.08H599.91v69.74H537v-152H380.4v82.31H263.79v219.46h-91l88.54 568.18h507.56l88.55-568.18z m-40-179.51v179.51h-50l-4.63 13.51c-2.88 8.41-10.57 16.88-22 24.55V193.08z m-116.61 69.74v166.24C581 435 559.52 438.9 537 440.43V262.82z m-179.51-152H497v329.84c-27.95-1.57-54.45-6.74-76.62-15V110.77z m-116.61 82.26h76.61v209.86c-6-5.46-10.12-11.16-12.06-16.84l-4.63-13.51h-59.92z m430.85 707.69H295.58L219.5 412.59h117.38c24.93 41 94.95 68.59 178.23 68.59s153.3-27.58 178.23-68.59h117.38z" p-id="4656" fill="#707070"></path><path d="M515.11 550.94c-73.44 0-133.18 59.74-133.18 133.18S441.67 817.3 515.11 817.3s133.18-59.75 133.18-133.18-59.74-133.18-133.18-133.18z m0 226.36a93.18 93.18 0 1 1 93.18-93.18 93.29 93.29 0 0 1-93.18 93.18z" p-id="4657" fill="#707070"></path></svg>