<?xml version="1.0" standalone="no"?><!DOCTYPE svg PUBLIC "-//W3C//DTD SVG 1.1//EN" "http://www.w3.org/Graphics/SVG/1.1/DTD/svg11.dtd"><svg t="1666236455340" class="icon" viewBox="0 0 1024 1024" version="1.1" xmlns="http://www.w3.org/2000/svg" p-id="3248" xmlns:xlink="http://www.w3.org/1999/xlink" width="200" height="200"><path d="M898.56 562.005333L870.4 554.325333V453.973333h5.632a17.066667 17.066667 0 0 0 17.066667-17.066666v-91.136a17.066667 17.066667 0 0 0-17.066667-17.066667H870.4V204.8a51.2 51.2 0 0 0-51.2-51.2H450.218667v-5.632a17.066667 17.066667 0 0 0-17.066667-17.066667H341.333333a17.066667 17.066667 0 0 0-17.066666 17.066667V153.6h-119.466667a51.2 51.2 0 0 0-51.2 51.2v123.904h-5.632a17.066667 17.066667 0 0 0-17.066667 17.066667v91.136a17.066667 17.066667 0 0 0 17.066667 17.066666H153.6V819.2a51.2 51.2 0 0 0 51.2 51.2h119.466667v5.632a17.066667 17.066667 0 0 0 17.066666 17.066667h91.136a17.066667 17.066667 0 0 0 17.066667-17.066667V870.4H494.933333a105.301333 105.301333 0 0 0 4.949334 11.093333 121.002667 121.002667 0 0 0 168.448 49.493334L768 873.642667a131.072 131.072 0 0 0 61.781333-80.554667l37.205334-138.581333 6.826666 1.877333a17.066667 17.066667 0 0 0 20.821334-12.117333l17.066666-61.44a17.066667 17.066667 0 0 0-13.141333-20.821334z m-39.594667-199.168v57.002667H535.893333a89.6 89.6 0 0 0-25.088-28.501333 89.6 89.6 0 0 0 25.088-28.501334zM450.218667 187.733333H819.2a17.066667 17.066667 0 0 1 17.066667 17.066667v123.904H546.133333a81.578667 81.578667 0 0 0 1.024-9.045333 88.746667 88.746667 0 0 0-88.746666-88.746667 71.68 71.68 0 0 0-8.704 0.853333z m8.704 77.312a54.613333 54.613333 0 0 1 0 109.226667h-5.973334a68.266667 68.266667 0 0 0-48.64-48.810667v-5.802666a54.613333 54.613333 0 0 1 54.613334-54.613334z m-88.746667 54.613334v5.802666a68.266667 68.266667 0 0 0-48.810667 48.810667h-5.802666a54.613333 54.613333 0 1 1 54.613333-54.613333z m17.066667 37.546666a34.133333 34.133333 0 1 1-34.133334 34.133334 34.133333 34.133333 0 0 1 34.133334-34.133334zM358.4 165.034667h57.002667v77.312a85.333333 85.333333 0 0 0-28.842667 25.429333A89.6 89.6 0 0 0 358.4 242.858667zM187.733333 204.8a17.066667 17.066667 0 0 1 17.066667-17.066667h119.466667v44.032a83.456 83.456 0 0 0-9.386667-0.853333 88.917333 88.917333 0 0 0-88.917333 88.746667 81.578667 81.578667 0 0 0 1.024 9.045333H187.733333zM165.034667 419.84v-57.002667H238.933333a88.064 88.064 0 0 0 25.258667 28.501334A88.064 88.064 0 0 0 238.933333 419.84zM324.266667 836.266667h-119.466667a17.066667 17.066667 0 0 1-17.066667-17.066667V453.973333h39.936a77.141333 77.141333 0 0 0-1.024 9.045334 88.917333 88.917333 0 0 0 88.917334 88.746666 83.456 83.456 0 0 0 9.386666 0z m-9.386667-318.634667a54.613333 54.613333 0 1 1 0-109.226667h5.802667a68.266667 68.266667 0 0 0 48.810666 48.810667v5.802667a54.613333 54.613333 0 0 1-53.930666 54.613333z m100.522667 341.333333H358.4v-319.146666a89.6 89.6 0 0 0 28.16-24.917334 88.064 88.064 0 0 0 28.842667 25.429334z m-11.776-395.946666v-5.802667a68.266667 68.266667 0 0 0 48.64-48.810667h5.973333a54.613333 54.613333 0 1 1-54.613333 54.613334zM486.912 836.266667h-36.693333V550.912a71.68 71.68 0 0 0 8.704 0 88.746667 88.746667 0 0 0 88.746666-88.746667 77.141333 77.141333 0 0 0-1.536-8.192h290.133334V546.133333l-185.685334-51.2a17.066667 17.066667 0 0 0-20.821333 12.117334l-17.066667 61.44a17.066667 17.066667 0 0 0 11.946667 20.821333l6.826667 1.877333-24.746667 92.16a6.144 6.144 0 0 1-2.730667 3.754667l-54.442666 32.256A124.416 124.416 0 0 0 486.912 836.266667z m126.293333 76.288a82.944 82.944 0 0 1-30.208-3.072 85.333333 85.333333 0 0 1-47.957333-129.877334 129.194667 129.194667 0 0 1 78.848 119.466667c0.512 5.461333 0.512 9.216-0.682667 13.482667zM796.330667 785.066667A98.304 98.304 0 0 1 750.933333 844.117333l-11.093333 6.314667a69.290667 69.290667 0 0 1-1.365333-11.946667 66.901333 66.901333 0 0 1 61.610666-66.389333z m12.458666-46.592h-3.925333a101.205333 101.205333 0 0 0-101.034667 101.034666 98.474667 98.474667 0 0 0 4.778667 29.866667l-57.514667 33.109333a27.818667 27.818667 0 0 0-3.242666 1.536v-3.072a164.864 164.864 0 0 0-87.552-146.602666c2.048-1.365333 3.925333-3.072 6.144-4.266667L621.568 716.8a39.253333 39.253333 0 0 0 18.773333-24.405333L665.6 600.576l168.448 45.056z m56.832-118.613334l-214.869333-58.538666 7.509333-28.501334 214.869334 57.685334z" fill="#707070" p-id="3249"></path></svg>