<?xml version="1.0" standalone="no"?><!DOCTYPE svg PUBLIC "-//W3C//DTD SVG 1.1//EN" "http://www.w3.org/Graphics/SVG/1.1/DTD/svg11.dtd"><svg t="1666096552540" class="icon" viewBox="0 0 1024 1024" version="1.1" xmlns="http://www.w3.org/2000/svg" p-id="13732" xmlns:xlink="http://www.w3.org/1999/xlink" width="200" height="200"><path d="M864 288 352 288c0-17.7-14.3-32-32-32l-64 0c-17.7 0-32 14.3-32 32l-64 0c-17.7 0-32 14.3-32 32l0 448c0 17.7 14.3 32 32 32l704 0c17.7 0 32-14.3 32-32L896 320C896 302.3 881.7 288 864 288zM832 736 192 736 192 352l640 0L832 736z" p-id="13733" fill="#707070"></path><path d="M512 704c88.2 0 160-71.8 160-160s-71.8-160-160-160-160 71.8-160 160S423.8 704 512 704zM512 448c52.9 0 96 43.1 96 96s-43.1 96-96 96-96-43.1-96-96S459.1 448 512 448z" p-id="13734" fill="#707070"></path><path d="M704 448l32 0c17.7 0 32-14.3 32-32s-14.3-32-32-32l-32 0c-17.7 0-32 14.3-32 32S686.3 448 704 448z" p-id="13735" fill="#707070"></path></svg>