<?xml version="1.0" standalone="no"?><!DOCTYPE svg PUBLIC "-//W3C//DTD SVG 1.1//EN" "http://www.w3.org/Graphics/SVG/1.1/DTD/svg11.dtd"><svg t="1666187630870" class="icon" viewBox="0 0 1024 1024" version="1.1" xmlns="http://www.w3.org/2000/svg" p-id="9684" xmlns:xlink="http://www.w3.org/1999/xlink" width="200" height="200"><path d="M273.081681 307.296235 599.250151 7.338645C609.215747-1.978503 625.426903-1.978503 635.426627 7.338645L888.218283 243.202441C892.996309 247.639179 895.69248 253.748225 895.69248 260.062044 895.69248 266.44412 892.996309 272.484909 888.218283 276.989905L853.270443 307.296235C820.882258 308.900287 814.943855 309.992406 785.012941 307.296235L833.885312 260.062044 617.30426 57.985712 341.339182 307.296235C303.558656 307.739909 303.797556 309.173316 273.081681 307.296235ZM170.695428 307.296235 360.417153 11.87777C367.481805 0.547024 383.044516-3.377783 395.296737 3.174938L546.111687 68.394981C516.931605 96.073397 529.866401 65.528166 477.854185 102.523731L391.883862 56.415789 238.95293 307.296235C193.322791 308.661386 197.998429 306.101729 170.695428 307.296235ZM895.96551 1023.761099 128.03449 1023.761099C57.456233 1023.761099 0.051676 970.17896 0.051676 904.310471L0.051676 406.133097C0.051676 340.298737 65.988422 307.296235 136.566678 307.296235L887.399193 307.296235C957.97745 307.296235 1023.948324 340.298737 1023.948324 406.133097L1023.948324 904.310471C1023.948324 970.17896 966.509638 1023.761099 895.96551 1023.761099L895.96551 1023.761099 895.96551 1023.761099ZM142.266179 375.110063C101.482322 375.110063 68.309176 387.737701 68.309176 424.391979L68.309176 906.665355C68.309176 943.353762 101.482322 955.947271 142.266179 955.947271L881.699692 955.947271C922.483549 955.947271 955.656695 943.353762 955.656695 906.665355L955.656695 424.391979C955.656695 387.737701 922.483549 375.110063 881.699692 375.110063L142.266179 375.110063 142.266179 375.110063 142.266179 375.110063ZM734.058716 750.696964C668.190227 750.696964 614.608089 697.046568 614.608089 631.109822 614.608089 565.173076 668.190227 511.52268 734.058716 511.52268 799.893077 511.52268 853.509344 565.173076 853.509344 631.109822 853.509344 697.046568 799.893077 750.696964 734.058716 750.696964L734.058716 750.696964 734.058716 750.696964ZM734.024587 571.828182C701.056214 571.828182 674.196887 598.65338 674.196887 631.621753 674.196887 664.555998 701.056214 691.347067 734.024587 691.347067 766.992961 691.347067 793.852287 664.555998 793.852287 631.621753 793.852287 598.619252 766.992961 571.828182 734.024587 571.828182L734.024587 571.828182 734.024587 571.828182Z" p-id="9685" fill="#707070"></path></svg>