<?xml version="1.0" standalone="no"?><!DOCTYPE svg PUBLIC "-//W3C//DTD SVG 1.1//EN" "http://www.w3.org/Graphics/SVG/1.1/DTD/svg11.dtd"><svg t="1666187864685" class="icon" viewBox="0 0 1024 1024" version="1.1" xmlns="http://www.w3.org/2000/svg" p-id="14302" xmlns:xlink="http://www.w3.org/1999/xlink" width="200" height="200"><path d="M814.027289 958.506357c-79.889515 0-192.97713-88.539522-238.921531-184.639231L448.879915 773.867126c-45.677319 96.098685-158.709675 182.654017-238.909252 182.654017-145.678894 0-178.471764-284.726763-178.471764-384.381437 0-130.87677 104.693434-237.594303 233.385445-237.594303l494.228241 0c128.692011 0 233.385445 106.20895 233.385445 236.468666C992.500077 671.473061 959.707207 958.506357 814.027289 958.506357zM430.941358 718.952422l162.115238 0c11.31572 0 21.463848 7.427156 25.580608 17.966187 33.476439 85.829807 138.452305 166.886915 195.389062 166.886915 82.264609 0 123.558084-213.403345 123.558084-332.670705 0-99.973946-80.065524-181.674713-178.471764-181.674713L264.885368 389.460106c-96.744391 0-178.471764 84.033905-178.471764 182.922123 0 134.550439 44.001143 329.439104 123.55706 329.439104 57.273425 0 162.315806-80.199577 195.390086-165.0378C409.47751 726.245526 419.626661 718.952422 430.941358 718.952422z" p-id="14303" fill="#707070"></path><path d="M491.406474 691.488931l-13.728676 0c-7.588839 0-13.728676-6.141884-13.728676-13.728676 0-7.588839 6.139837-13.728676 13.728676-13.728676l13.728676 0c7.588839 0 13.728676 6.139837 13.728676 13.728676C505.13515 685.34807 498.995313 691.488931 491.406474 691.488931z" p-id="14304" fill="#707070"></path><path d="M211.284589 865.301582c-7.588839 0-13.728676-5.925966-13.728676-13.514805 0-7.586792 6.139837-13.594623 13.728676-13.594623 39.416731 0 136.200008-98.835006 161.792896-164.976402 2.051729-5.282307 7.132444-9.184173 12.803607-9.184173l50.610678 0c7.588839 0 13.728676 6.139837 13.728676 13.728676 0 7.586792-6.139837 13.728676-13.728676 13.728676l-41.507346 0C364.175745 760.13845 267.915377 865.301582 211.284589 865.301582z" p-id="14305" fill="#707070"></path><path d="M511.744685 386.350279c-7.909134 0-15.766079-3.405563-21.195741-9.975189-9.639544-11.704576-7.990998-29.012777 3.700275-38.664601 22.966061-18.944468 38.08848-44.310182 38.517245-64.60746 0.2415-11.288091-3.914146-20.391423-13.098319-28.650527-30.727839-27.658943-94.65173-85.213777-34.562167-168.054507 8.915044-12.254092 26.063609-14.975063 38.356586-6.099928 12.267395 8.916067 15.001669 26.075889 6.099928 38.356586-24.695448 34.025954-19.170618 53.559846 26.840298 94.987375 21.036106 18.931165 31.855522 43.344181 31.278377 70.627571-0.791016 36.681434-22.644743 76.231195-58.4666 105.806791C524.091898 384.285247 517.898849 386.350279 511.744685 386.350279z" p-id="14306" fill="#707070"></path><path d="M263.249101 692.440605c-7.588839 0-13.728676-6.139837-13.728676-13.728676L249.520425 486.512513c0-7.588839 6.139837-13.728676 13.728676-13.728676s13.728676 6.139837 13.728676 13.728676l0 192.199417C276.977777 686.300768 270.83794 692.440605 263.249101 692.440605z" p-id="14307" fill="#707070"></path><path d="M354.120738 595.388199 161.921321 595.388199c-7.588839 0-13.728676-6.139837-13.728676-13.728676s6.139837-13.728676 13.728676-13.728676l192.199417 0c7.588839 0 13.728676 6.139837 13.728676 13.728676S361.709577 595.388199 354.120738 595.388199z" p-id="14308" fill="#707070"></path><path d="M768.6191 583.871911c-12.57541 0-24.38641-4.906753-33.276894-13.808494-8.874111-8.861832-13.768585-20.673855-13.768585-33.249265s4.894474-24.38641 13.782911-33.275871c17.751293-17.777899 48.773843-17.777899 66.525136 0 8.901741 8.889461 13.795191 20.700461 13.795191 33.275871s-4.89345 24.387433-13.781888 33.261545C793.00551 578.966181 781.19451 583.871911 768.6191 583.871911zM768.6191 517.227048c-5.228071 0-10.149151 2.025123-13.849426 5.724375-3.699252 3.700275-5.737678 8.620331-5.737678 13.862729 0 5.228071 2.038426 10.149151 5.737678 13.848403 7.40055 7.429203 20.283975 7.429203 27.712155 0 3.700275-3.699252 5.737678-8.620331 5.737678-13.848403s-2.037403-10.148128-5.750981-13.862729C778.768251 519.252171 773.848195 517.227048 768.6191 517.227048z" p-id="14309" fill="#707070"></path><path d="M843.899644 659.137105c-12.576433 0-24.40176-4.906753-33.289174-13.808494-8.876158-8.861832-13.768585-20.671809-13.768585-33.249265 0-12.57541 4.892427-24.385387 13.781888-33.261545 17.751293-17.777899 48.759517-17.777899 66.537416 0 18.35402 18.327414 18.35402 48.171116 0.014326 66.538439C868.272751 654.244678 856.460728 659.137105 843.899644 659.137105zM843.885318 592.492242c-5.228071 0-10.149151 2.038426-13.849426 5.737678-3.700275 3.701299-5.737678 8.620331-5.737678 13.848403 0 5.230118 2.037403 10.149151 5.737678 13.850449 7.413853 7.41283 20.311605 7.41283 27.726481 0.01228 7.627724-7.641027 7.627724-20.068058-0.014326-27.711132C854.047772 594.530668 849.127715 592.492242 843.885318 592.492242z" p-id="14310" fill="#707070"></path><path d="M693.352883 659.137105c-12.57541 0-24.387433-4.892427-33.275871-13.794168-8.889461-8.888438-13.782911-20.700461-13.768585-33.263591 0-12.57541 4.892427-24.385387 13.782911-33.261545 17.750269-17.777899 48.77282-17.777899 66.524113 0 8.889461 8.861832 13.795191 20.673855 13.795191 33.249265 0.014326 12.57541-4.881171 24.399713-13.782911 33.289174C717.741339 654.244678 705.929316 659.137105 693.352883 659.137105zM693.352883 592.492242c-5.228071 0-10.149151 2.038426-13.848403 5.737678-3.701299 3.701299-5.737678 8.620331-5.737678 13.848403 0 5.230118 2.025123 10.149151 5.724375 13.850449 7.427156 7.440459 20.323884 7.40055 27.725458 0.01228 3.700275-3.699252 5.737678-8.632611 5.737678-13.862729 0-5.228071-2.037403-10.147104-5.737678-13.8351C703.502034 594.530668 698.581977 592.492242 693.352883 592.492242z" p-id="14311" fill="#707070"></path><path d="M768.6191 734.396159c-12.57541 0-24.38641-4.879124-33.262568-13.780865-8.888438-8.876158-13.782911-20.694321-13.782911-33.269731s4.894474-24.387433 13.782911-33.263591c17.751293-17.775852 48.773843-17.775852 66.525136 0 8.888438 8.861832 13.795191 20.673855 13.795191 33.249265 0.013303 12.57541-4.880147 24.407899-13.781888 33.283034C793.00551 729.518059 781.19451 734.396159 768.6191 734.396159zM768.6191 667.759483c-5.228071 0-10.149151 2.036379-13.849426 5.737678-3.699252 3.699252-5.737678 8.620331-5.737678 13.848403 0 5.242398 2.038426 10.163477 5.737678 13.862729 7.414877 7.421017 20.324908 7.393387 27.712155 0 3.700275-3.699252 5.737678-8.634658 5.737678-13.862729s-2.037403-10.149151-5.737678-13.836123C778.768251 669.795862 773.848195 667.759483 768.6191 667.759483z" p-id="14312" fill="#707070"></path></svg>