<?xml version="1.0" standalone="no"?><!DOCTYPE svg PUBLIC "-//W3C//DTD SVG 1.1//EN" "http://www.w3.org/Graphics/SVG/1.1/DTD/svg11.dtd"><svg t="1666096566167" class="icon" viewBox="0 0 1024 1024" version="1.1" xmlns="http://www.w3.org/2000/svg" p-id="14877" xmlns:xlink="http://www.w3.org/1999/xlink" width="200" height="200"><path d="M260.9 413.3c-11.4 17.4-18 38.2-18 60.6 0 61.4 49.8 111.2 111.2 111.2 44 0 82-25.6 100-62.8l-193.2-109z" fill="#707070" p-id="14878"></path><path d="M575 618.3l-453.4-256 7.9-19.5c19.6-48.5 52.8-89.8 96-119.5 44.3-30.4 96.2-46.5 150.1-46.5 70.9 0 137.5 27.6 187.6 77.7s77.7 116.7 77.7 187.6c0 58-18.4 113.2-53.2 159.4L575 618.3zM182.8 341.8l378.3 213.6c20.9-34 31.8-72.8 31.8-113.3 0-119.8-97.5-217.3-217.3-217.3-82 0-155.6 45.3-192.8 117z" fill="#707070" p-id="14879"></path><path d="M610.4 342.6l-41.6-24 53.5-92.7c6.6-11.5 2.6-26.2-8.8-32.8l-113.3-65.4c-11.5-6.6-26.2-2.6-32.8 8.8l-45.2 78.3-41.6-24 45.2-78.3c19.8-34.3 63.9-46.1 98.3-26.4l113.4 65.4c34.3 19.8 46.2 63.9 26.4 98.3l-53.5 92.8zM829.7 548.4c-37.5 0-68-30.5-68-68s30.5-68 68-68 68 30.5 68 68-30.5 68-68 68z m0-88c-11 0-20 9-20 20s9 20 20 20 20-9 20-20-9-20-20-20z" fill="#707070" p-id="14880"></path><path d="M582.3 786.1l-34.6-33.2 257.2-268.4-208-174.9 31-36.8 247 207.9z" fill="#707070" p-id="14881"></path><path d="M807 932H328.3l2.5-26.3c4.5-47 32-90.2 77.4-121.7 43.6-30.3 100.3-46.9 159.4-46.9 59.2 0 115.8 16.7 159.4 46.9 45.3 31.5 72.8 74.6 77.4 121.6L807 932z m-422.1-48h365.3c-8.9-22.7-26.2-43.6-50.6-60.5-35.7-24.8-82.6-38.4-132-38.4-49.5 0-96.4 13.6-132.1 38.4-24.4 16.9-41.7 37.8-50.6 60.5z" fill="#707070" p-id="14882"></path></svg>