<?xml version="1.0" standalone="no"?><!DOCTYPE svg PUBLIC "-//W3C//DTD SVG 1.1//EN" "http://www.w3.org/Graphics/SVG/1.1/DTD/svg11.dtd"><svg t="1665908850187" class="icon" viewBox="0 0 1024 1024" version="1.1" xmlns="http://www.w3.org/2000/svg" p-id="16846" xmlns:xlink="http://www.w3.org/1999/xlink" width="200" height="200"><path d="M772.5 413.2h-0.6c-2.9-65.2-29.7-126.1-76.2-172.6-19.9-19.9-42.4-36.2-66.8-48.5 19.1-4.8 33.2-22.1 33.2-42.7v-39.2c0-24.3-19.8-44-44-44H404.2c-24.3 0-44 19.8-44 44v39.2c0 20.6 14.2 37.9 33.2 42.7-24.4 12.3-46.9 28.6-66.8 48.5-49.3 49.3-76.4 114.8-76.4 184.6v418c0 63.4 51.6 115 115 115h292c60.7 0 110.6-47.3 114.7-107h0.6v-438z m-492 408v-378h461.7v378H280.5z m268-657.8V96.2h33.7v67.3h-33.7z m-20 0h-33.7V96.2h33.7v67.2z m-53.7 0h-33.7V96.2h33.7v67.2z m157.4-53.2v39.2c0 7.7-6.3 14-14 14h-16V96.2h16c7.7 0 14 6.3 14 14z m-242 0c0-7.7 6.3-14 14-14h17v67.3h-17c-7.7 0-14-6.3-14-14v-39.3z m-42.4 151.6c43.6-43.6 101.6-67.7 163.3-67.7 61.7 0 119.7 24 163.3 67.7 40.8 40.8 64.4 94.1 67.3 151.3H280.5c2.9-57.1 26.5-110.5 67.3-151.3z m309.4 666.4h-292c-44.2 0-80.6-33.9-84.6-77h461.2c-4.1 43.1-40.5 77-84.6 77z" p-id="16847" fill="#515151"></path><path d="M511.5 475.2c-86.6 0-157 70.4-157 157s70.4 157 157 157 157-70.4 157-157-70.4-157-157-157z m0 294c-75.5 0-137-61.5-137-137s61.5-137 137-137 137 61.5 137 137-61.5 137-137 137z" p-id="16848" fill="#515151"></path><path d="M588.5 593.2h-38v-38c0-11-9-20-20-20h-38c-11 0-20 9-20 20v38h-38c-11 0-20 9-20 20v38c0 11 9 20 20 20h38v38c0 11 9 20 20 20h38c11 0 20-9 20-20v-38h38c11 0 20-9 20-20v-38c0-11.1-9-20-20-20z m0 58h-58v58h-38v-58h-58v-38h58v-58h38v58h58v38z" p-id="16849" fill="#515151"></path></svg>