<?xml version="1.0" standalone="no"?><!DOCTYPE svg PUBLIC "-//W3C//DTD SVG 1.1//EN" "http://www.w3.org/Graphics/SVG/1.1/DTD/svg11.dtd"><svg t="1666096543556" class="icon" viewBox="0 0 1024 1024" version="1.1" xmlns="http://www.w3.org/2000/svg" p-id="12332" xmlns:xlink="http://www.w3.org/1999/xlink" width="200" height="200"><path d="M365.568 4.096q12.288-2.048 18.944 10.24t14.848 26.624q3.072 7.168 17.92 27.136t31.744 42.496 31.744 41.984 17.92 25.6q8.192 13.312 9.216 20.992t-12.288 6.656q-6.144-1.024-15.872 1.536t-19.456 6.656-18.432 9.728-12.8 9.728q-5.12 6.144-9.728 5.632t-8.704-5.632-7.68-12.8-4.608-15.872q-2.048-10.24-7.168-29.696t-11.264-41.472-11.264-43.52-8.192-35.84q-5.12-25.6-3.584-36.864t8.704-13.312zM662.528 4.096q7.168 2.048 8.704 13.312t-3.584 36.864q-3.072 14.336-8.192 35.84t-11.264 43.52-11.264 41.472-7.168 29.696q-2.048 8.192-5.12 15.872t-7.168 12.8-9.216 5.632-10.24-5.632q-3.072-4.096-11.776-9.728t-18.944-9.728-19.456-6.656-15.36-1.536q-13.312 1.024-12.288-6.656t8.192-20.992q4.096-6.144 18.432-25.6t31.232-41.984 31.744-42.496 18.944-27.136q8.192-14.336 14.848-26.624t18.944-10.24zM489.472 412.672l47.104 0 1.024-144.384 9.216 0q5.12 0 10.24-0.512t13.312-0.512q7.168 0 15.36 5.12l16.384 8.192q8.192 5.12 15.872 8.704t13.824 2.56q6.144 0 13.312-11.264t14.848-27.648 14.336-34.304 12.8-31.232q5.12-13.312 10.24-31.744t8.192-35.84q4.096-19.456 6.144-40.96l36.864 6.144q15.36 3.072 31.744 6.144t27.648 5.12q10.24 3.072 18.432 5.12t15.36 6.656 14.848 11.776 17.92 19.456 25.6 36.352 31.232 50.688 29.184 50.176 18.432 34.816q7.168 14.336 2.56 18.432t-9.728 8.192q-6.144 4.096-20.48 13.824t-31.744 20.992-34.816 20.992-28.672 13.824-14.848 2.56-6.656-6.656q-2.048-3.072-8.192-11.776t-13.312-18.432-13.312-18.432-8.192-10.752q-4.096-5.12-10.24-0.512t-6.144 20.992q0 8.192-0.512 28.16t-0.512 49.664l0 64.512 0 74.752q0 105.472-2.56 168.96t-4.608 99.328q-3.072 40.96-6.144 59.392l-495.616 0q-3.072-29.696-6.144-65.536-2.048-30.72-4.608-72.704t-1.536-91.136l0-80.896q0-41.984-0.512-79.872t-1.024-67.072-0.512-43.52l0-46.08q0-17.408-9.216-19.456-5.12-1.024-9.728 3.072t-9.728 11.264-9.728 15.36-8.704 14.336q-8.192 11.264-12.8 16.384t-7.68 6.144-5.12 0l-8.192-3.072q-13.312-4.096-31.232-13.824t-34.816-20.48-29.696-19.968-16.896-12.288q-8.192-5.12-11.776-8.192t1.536-19.456q3.072-8.192 13.824-28.672t25.6-44.544 30.208-48.128 27.648-41.472q17.408-25.6 34.304-36.864t40.448-16.384q11.264-2.048 28.16-4.608t31.232-5.632q17.408-4.096 35.84-7.168 4.096 21.504 8.192 40.96 4.096 17.408 7.68 35.328t7.68 29.184q3.072 11.264 10.24 28.16t14.848 33.28 15.36 29.184 12.8 15.872q10.24 5.12 23.552-5.12t30.72-15.36q8.192-2.048 16.384-2.56t14.336-0.512q7.168 1.024 13.312 2.048l0 143.36z" p-id="12333" fill="#707070"></path></svg>