<?xml version="1.0" standalone="no"?><!DOCTYPE svg PUBLIC "-//W3C//DTD SVG 1.1//EN" "http://www.w3.org/Graphics/SVG/1.1/DTD/svg11.dtd"><svg t="1666187659689" class="icon" viewBox="0 0 1024 1024" version="1.1" xmlns="http://www.w3.org/2000/svg" p-id="12004" xmlns:xlink="http://www.w3.org/1999/xlink" width="200" height="200"><path d="M611.4 141.1c-99.1-26.6-202.5-12.9-291.4 38.3-88.8 51.3-152.4 134.1-178.9 233.2-54.8 204.5 67 415.5 271.5 470.3 33.1 8.9 66.7 13.3 100 13.3 66.5 0 132.2-17.5 191.3-51.6 88.8-51.3 152.4-134.1 178.9-233.2C937.7 406.9 815.9 195.9 611.4 141.1zM202.9 429.2c18.3-68.2 57.8-126.9 112.7-169.4 44.7 52.3 63.2 131.4 41.9 210.8-21.2 79.3-76.7 138.6-141.5 161.6C190.5 569.8 184.2 499.1 202.9 429.2zM429.2 821.1c-78.2-21-141.6-69.5-183.2-132.1 80.2-31.9 147.4-105 173.3-201.8 25.9-96.7 4.4-193.6-49.1-261.3 44.5-22.1 92.5-34 141.2-34 27.8 0 55.8 3.7 83.4 11 78.2 21 141.6 69.5 183.2 132.1-80.2 31.9-147.4 105-173.3 201.8-26 96.9-4.3 193.8 49.3 261.5C584.2 833.1 505.1 841.5 429.2 821.1zM821.1 594.8c-18.3 68.2-57.8 126.9-112.7 169.4-44.7-52.3-63.2-131.4-41.9-210.8 21.2-79.3 76.7-138.6 141.5-161.6C833.5 454.2 839.8 524.9 821.1 594.8z" p-id="12005" fill="#707070"></path></svg>