<?xml version="1.0" standalone="no"?><!DOCTYPE svg PUBLIC "-//W3C//DTD SVG 1.1//EN" "http://www.w3.org/Graphics/SVG/1.1/DTD/svg11.dtd"><svg t="1666187184427" class="icon" viewBox="0 0 1024 1024" version="1.1" xmlns="http://www.w3.org/2000/svg" p-id="5624" xmlns:xlink="http://www.w3.org/1999/xlink" width="200" height="200"><path d="M885.737231 100.701264c-57.409084 61.845241-114.347434 123.18393-175.839624 189.434627 14.787188 1.93922 23.296217 3.955189 31.81548 4.016589 44.325748 0.332584 88.687313-0.772618 132.956778 0.849368 11.031549 0.404217 25.844321 6.426543 31.247529 14.807655 3.873322 6.017209-2.35367 22.293349-8.621596 30.531195-105.096487 138.129736-211.113976 275.56872-316.149063 413.744506-7.516394 9.885414-12.433518 24.247919-12.750752 36.67632-1.376385 53.668795-0.644701 107.393874-0.521901 161.098486 0.01535 7.429411 0.941468 14.853705 1.657802 25.36847 19.023795 0 36.696787 0.583301 54.313496-0.163734 17.253425-0.731684 29.732994 5.797192 29.564143 23.495768-0.1535 16.06124-11.988368 22.764083-28.111008 22.671983-53.704612-0.296767-107.409224-0.32235-161.113836 0.01535-16.281257 0.102333-27.589107-6.897277-27.931924-22.8613-0.347934-16.158457 10.678499-23.664618 27.143956-23.250167 18.481427 0.465617 36.978204 0.10745 58.509169 0.10745 0-45.58445-3.346305-88.288213 0.823785-130.239824 5.592525-56.273182-11.604617-100.670564-47.99952-143.49201-55.045181-64.756628-105.106721-133.760096-156.92328-201.243911-10.151482-13.221486-18.547944-16.24544-35.832069-8.590896-73.802908 32.680198-144.489762 22.81525-204.8921-29.779044C15.871923 410.602868-4.364523 340.949583 18.911228 262.567251c22.605466-76.125878 75.16906-122.288512 153.837925-135.284865 100.813831-16.654774 191.706431 42.591196 217.233518 141.665358 5.556708 21.566782 14.587638 28.182641 36.297687 27.543057 64.710578-1.908519 129.50814-0.890301 194.213601-2.839754 12.049768-0.363284 27.13884-6.073492 35.233418-14.618338 68.532734-72.288373 136.057483-145.53868 203.147314-219.177854 13.349403-14.654155 26.289472-18.179543 42.069295-6.69261 34.3994 25.04612 68.425284 50.598791 102.5842 75.972378 2.04667 1.519652 3.893789 3.315605 5.863709 4.942707 12.428402 10.253815 17.140858 24.72377 5.157608 34.972468-6.851227 5.858592-25.301954 6.431659-33.263499 1.263819C949.260741 149.529686 919.29238 125.578534 885.737231 100.701264zM546.3994 727.028232c93.809104-128.167571 185.371988-253.265138 276.929756-378.362704-1.729436-2.09272-3.463988-4.185439-5.193424-6.278159-50.051307 0-100.10773-0.332584-150.143687 0.486084-5.377625 0.086983-11.394833 6.155359-15.83099 10.698966-20.236446 20.712297-38.850907 43.220547-60.637705 62.090841-6.974027 6.042792-21.919832 2.875571-33.222565 3.924489-0.240484-11.532984-3.556089-24.212102 0.173967-34.271484 3.530505-9.517014 14.838355-15.974257 21.986349-24.406536 3.755639-4.43104 5.919992-10.207765 8.979763-15.697956-109.005626 0-214.588198 0-326.448928 0C358.663509 474.100794 450.625493 597.990826 546.3994 727.028232zM271.403748 443.978934c-27.722141-36.16977-54.610263-70.108669-79.92245-105.183471-5.587408-7.746645-10.673382-22.794783-6.912627-28.632909 4.978524-7.726178 18.737261-13.057752 28.991076-13.528486 34.844551-1.601519 69.806786-0.573068 104.72297-0.629351 31.329396-0.04605 33.478399-3.100705 22.349633-31.293579C315.836946 201.944896 250.374217 162.618138 186.40044 172.058402 114.567451 182.665268 61.640574 238.523999 56.99975 308.637785c-4.395223 66.358147 39.459791 130.209124 104.160136 149.570619C198.936291 469.511138 235.909379 468.92272 271.403748 443.978934z" p-id="5625" fill="#707070"></path></svg>