<?xml version="1.0" standalone="no"?><!DOCTYPE svg PUBLIC "-//W3C//DTD SVG 1.1//EN" "http://www.w3.org/Graphics/SVG/1.1/DTD/svg11.dtd"><svg t="1665905089079" class="icon" viewBox="0 0 1024 1024" version="1.1" xmlns="http://www.w3.org/2000/svg" p-id="4463" xmlns:xlink="http://www.w3.org/1999/xlink" width="200" height="200"><path d="M682.709333 652.565333l-2.154666-1.365333c-1.408-0.896-10.005333-6.186667-12.608-7.829333-5.333333-3.349333-9.749333-6.314667-14.08-9.429334-55.701333-40.213333-81.386667-107.477333-77.525334-246.314666 5.461333-196.608 91.52-301.013333 213.141334-302.272L793.301333 85.333333a2882.133333 2882.133333 0 0 1 33.28-0.064l4.586667 0.021334a42.816 42.816 0 0 1 42.794667 42.666666l0.661333 746.624A64.106667 64.106667 0 0 1 810.56 938.666667h-63.722667a63.893333 63.893333 0 0 1-64.128-64V652.586667zM298.666667 128.085333V405.333333a21.333333 21.333333 0 0 1-42.666667 0V128.106667H191.957333l-0.704 341.546666c-0.064 27.52 10.389333 55.125333 27.626667 77.461334 13.888 17.984 30.250667 29.226667 37.056 29.226666a21.333333 21.333333 0 0 1 21.333333 21.248l0.746667 236.565334a62.890667 62.890667 0 0 0 63.744 62.976 65.024 65.024 0 0 0 63.829333-65.024l-0.746666-234.368a21.333333 21.333333 0 0 1 21.333333-21.418667c32 0 62.464-46.378667 62.762667-106.794667L490.624 128 426.666667 128.021333V405.333333a21.333333 21.333333 0 0 1-42.666667 0V128.042667l-85.333333 0.042666zM793.642667 128L789.930667 128c-96.512 1.002667-166.058667 85.397333-170.944 260.778667-3.498667 125.909333 17.002667 179.626667 59.861333 210.56 3.498667 2.517333 7.232 4.992 11.84 7.893333 2.410667 1.536 10.922667 6.784 12.501333 7.786667 5.376 3.370667 9.493333 6.08 13.44 8.96l8.746667 6.4V874.666667c0 11.882667 9.450667 21.333333 21.461333 21.333333h63.722667c11.797333 0 21.418667-9.642667 21.397333-21.376l-0.981333-746.666667h-4.565333c-10.56-0.064-22.016-0.042667-32.768 0.042667z m-558.293334 706.282667l-0.704-219.733334c-42.944-17.301333-86.186667-82.282667-86.058666-144.981333l0.704-341.546667A42.624 42.624 0 0 1 192 85.333333h298.666667c23.701333 0 42.709333 19.2 42.602666 42.858667l-1.706666 341.546667c-0.341333 71.125333-34.88 132.352-84.010667 146.282666L448.256 832c0.192 58.688-47.210667 106.986667-105.877333 107.818667a105.557333 105.557333 0 0 1-107.029334-105.514667z" fill="#3D3D3D" p-id="4464"></path></svg>